<svg xmlns="http://www.w3.org/2000/svg" viewBox="0 0 854.5 974.73"><g id="Layer_2" data-name="Layer 2"><g id="Layer_1-2" data-name="Layer 1"><path d="M834.9,917.68c-2.69,42.14-15.56,56.6-52.64,56.67q-363,.69-726.06,0c-41.79-.1-57-16.83-56.16-56.67Z"/><path d="M850.78,570c-8.68-36.9-35.1-69.89-70.59-88.21C752.54,467.48,723,463.94,696,471.4c-.26-8.49-.71-17-1.42-25.53C682.46,407.23,657,402,627.23,402.09c-154.81.52-309.7.19-464.51.13-26.11,0-53.75,10.54-64.17,41.85-4.5,13.57-5.66,28.1-5.46,42.76.19,8.74.83,17.49,1.54,26.17,11.51,132.57,48,288.42,145.94,366.66,11.19,9,26,16,39.22,16.2,77.86,1.48,155.72,1.29,233.58.07,10.09-.2,23.21-6.63,29.64-15.56,8.23-11.38,16.14-23.08,23.92-34.91a.2.2,0,0,1,.06-.13,2.26,2.26,0,0,0,.32-.39c7.72-11.76,15.43-23.66,23.21-35.49,1.16-1.86,2.32-3.79,3.54-5.78a24,24,0,0,0,5.72.64,13.9,13.9,0,0,0,1.67-.07C676,799.55,733.77,781,778.13,747.54,836.19,703.69,865.38,632.33,850.78,570ZM163.55,467.54h69.89c-16.08,204.65.83,288.23,57.86,369.88C200.58,788.24,154.55,600.37,163.55,467.54ZM747.14,706.45c-31.25,23.54-71.94,38.13-124,44.24C652.89,691.86,685,611.24,693.71,525a26.94,26.94,0,0,0,9.9-1.93c15.95-6.56,34.79-4.95,53,4.43,22,11.38,38.9,32.15,44.11,54.27C810.6,623.9,788.55,675.21,747.14,706.45Z"/><path d="M413.69,378.89c-18.59-9.8-32.16-29.06-38.33-50.38-5.64-21.45-4.85-45.62,5.57-67.22a94,94,0,0,1,21.63-28.15c8.53-7.83,17.78-13.91,26.59-19.62C447,202.29,462.93,192.87,474,179.59,496.92,153,506.46,113.7,496.21,79a114.09,114.09,0,0,0-28.72-47.65A126.18,126.18,0,0,0,417.22,0c42-.36,84.48,28.13,102.69,70.26C538.17,113,529,165.09,498.32,200.58a131.62,131.62,0,0,1-26.18,22.83c-9.33,6.16-18.54,11.28-27.32,16.19a211,211,0,0,0-24.08,15.17,70.44,70.44,0,0,0-9.76,8.72,67.47,67.47,0,0,0-8,9.94C384.43,302.71,385.48,348.19,413.69,378.89Z"/><path d="M305.94,361.63c-9.67-7.48-16.29-19.23-19.65-31.65s-3.65-25.63-2.16-38.26,5.2-25.07,9.52-36.25,9.39-21.75,14.18-31.8,9.5-19.59,13.46-29c2-4.68,3.67-9.54,5.23-14a145.8,145.8,0,0,0,3.53-14.2,101.1,101.1,0,0,0,1.27-29.83,78,78,0,0,0-3.46-15.27,76.64,76.64,0,0,0-7.77-15.22c11.8,3.28,22.25,12.56,29,23.85s10.27,24.46,11.28,37.59-1,26.83-4.43,38.87c-1.72,6.09-3.89,11.92-6.07,17.64-2.34,5.63-4.82,11.08-7.32,16.4-10.27,21.22-21.68,39.25-29,58.29a142.73,142.73,0,0,0-8.44,29.78,106.26,106.26,0,0,0-1.2,16A102.31,102.31,0,0,0,305.94,361.63Z"/><path d="M529.56,359C518.9,353,511,341.5,507,329s-4.46-26.08-2.66-39,6.48-25.81,12.06-36.85a257.41,257.41,0,0,1,18.82-30.8c13.23-19.05,26.53-35.1,35.09-53.14a118.46,118.46,0,0,0,9.9-28.78,87.78,87.78,0,0,0,1.5-15.77,84.45,84.45,0,0,0-2.26-17c9.95,7.16,16.72,19.2,19.7,31.92s2.55,26.16.05,38.89-7.62,25.13-13.39,35.91c-2.91,5.44-6.11,10.58-9.23,15.65l-9.76,14.45c-6.59,9.27-12.93,18.09-18.71,26.79-2.88,4.31-5.54,8.8-8,12.95-2.3,4.33-4.57,8.76-6.5,13.38a107.49,107.49,0,0,0-7.9,29.1,80.89,80.89,0,0,0-.15,15.74A78.35,78.35,0,0,0,529.56,359Z"/></g></g></svg>